<mxfile host="app.diagrams.net" agent="Mozilla/5.0 (Windows NT 10.0; Win64; x64) AppleWebKit/537.36 (KHTML, like Gecko) Chrome/128.0.0.0 Safari/537.36" version="24.7.12">
  <diagram id="kgpKYQtTHZ0yAKxKKP6v" name="Page-1">
    <mxGraphModel dx="989" dy="538" grid="1" gridSize="10" guides="1" tooltips="1" connect="1" arrows="1" fold="1" page="1" pageScale="1" pageWidth="850" pageHeight="1100" math="0" shadow="0">
      <root>
        <mxCell id="0" />
        <mxCell id="1" parent="0" />
        <mxCell id="QOg4Mzp8YeB_TeJsz8n6-1" value="Postgres&lt;div&gt;&lt;br&gt;&lt;/div&gt;" style="shape=cylinder3;whiteSpace=wrap;html=1;boundedLbl=1;backgroundOutline=1;size=15;" vertex="1" parent="1">
          <mxGeometry x="160" y="80" width="60" height="80" as="geometry" />
        </mxCell>
        <mxCell id="QOg4Mzp8YeB_TeJsz8n6-2" value="GoLang RESTful Fiber API&lt;div&gt;&lt;br&gt;&lt;/div&gt;" style="rounded=0;whiteSpace=wrap;html=1;" vertex="1" parent="1">
          <mxGeometry x="330" y="110" width="210" height="130" as="geometry" />
        </mxCell>
        <mxCell id="QOg4Mzp8YeB_TeJsz8n6-3" value="" style="shape=flexArrow;endArrow=classic;startArrow=classic;html=1;rounded=0;exitX=1;exitY=0.563;exitDx=0;exitDy=0;exitPerimeter=0;entryX=-0.002;entryY=0.427;entryDx=0;entryDy=0;entryPerimeter=0;" edge="1" parent="1" source="QOg4Mzp8YeB_TeJsz8n6-1" target="QOg4Mzp8YeB_TeJsz8n6-2">
          <mxGeometry width="100" height="100" relative="1" as="geometry">
            <mxPoint x="230" y="225" as="sourcePoint" />
            <mxPoint x="330" y="125" as="targetPoint" />
          </mxGeometry>
        </mxCell>
        <mxCell id="QOg4Mzp8YeB_TeJsz8n6-5" value="gRPC" style="text;html=1;align=center;verticalAlign=middle;resizable=0;points=[];autosize=1;strokeColor=none;fillColor=none;rotation=-30;" vertex="1" parent="1">
          <mxGeometry x="570" y="130" width="60" height="30" as="geometry" />
        </mxCell>
        <mxCell id="QOg4Mzp8YeB_TeJsz8n6-6" value="Simple Frontend App&lt;div&gt;&lt;br&gt;&lt;/div&gt;" style="rounded=1;whiteSpace=wrap;html=1;" vertex="1" parent="1">
          <mxGeometry x="375" y="390" width="120" height="60" as="geometry" />
        </mxCell>
        <mxCell id="QOg4Mzp8YeB_TeJsz8n6-7" value="" style="shape=flexArrow;endArrow=classic;startArrow=classic;html=1;rounded=0;exitX=0.5;exitY=0;exitDx=0;exitDy=0;entryX=0.5;entryY=1;entryDx=0;entryDy=0;" edge="1" parent="1" source="QOg4Mzp8YeB_TeJsz8n6-6" target="QOg4Mzp8YeB_TeJsz8n6-2">
          <mxGeometry width="100" height="100" relative="1" as="geometry">
            <mxPoint x="425" y="390" as="sourcePoint" />
            <mxPoint x="525" y="290" as="targetPoint" />
          </mxGeometry>
        </mxCell>
        <mxCell id="QOg4Mzp8YeB_TeJsz8n6-8" value="WebSocket&lt;div&gt;&lt;br&gt;&lt;/div&gt;" style="text;html=1;align=center;verticalAlign=middle;resizable=0;points=[];autosize=1;strokeColor=none;fillColor=none;rotation=90;" vertex="1" parent="1">
          <mxGeometry x="410" y="290" width="80" height="40" as="geometry" />
        </mxCell>
        <mxCell id="QOg4Mzp8YeB_TeJsz8n6-9" value="Message Queue&lt;div&gt;(like Kafka)&lt;/div&gt;" style="rounded=1;whiteSpace=wrap;html=1;" vertex="1" parent="1">
          <mxGeometry x="670" y="100" width="120" height="60" as="geometry" />
        </mxCell>
        <mxCell id="QOg4Mzp8YeB_TeJsz8n6-10" value="" style="shape=flexArrow;endArrow=classic;startArrow=classic;html=1;rounded=0;entryX=-0.015;entryY=0.401;entryDx=0;entryDy=0;entryPerimeter=0;exitX=0.997;exitY=0.575;exitDx=0;exitDy=0;exitPerimeter=0;" edge="1" parent="1" source="QOg4Mzp8YeB_TeJsz8n6-2" target="QOg4Mzp8YeB_TeJsz8n6-9">
          <mxGeometry width="100" height="100" relative="1" as="geometry">
            <mxPoint x="540" y="190" as="sourcePoint" />
            <mxPoint x="640" y="90" as="targetPoint" />
          </mxGeometry>
        </mxCell>
        <mxCell id="QOg4Mzp8YeB_TeJsz8n6-12" value="Msg Broker&lt;br&gt;(like redis)" style="rounded=1;whiteSpace=wrap;html=1;" vertex="1" parent="1">
          <mxGeometry x="670" y="270" width="120" height="60" as="geometry" />
        </mxCell>
        <mxCell id="QOg4Mzp8YeB_TeJsz8n6-13" value="" style="shape=flexArrow;endArrow=classic;startArrow=classic;html=1;rounded=0;entryX=0.5;entryY=1;entryDx=0;entryDy=0;exitX=0.5;exitY=0;exitDx=0;exitDy=0;" edge="1" parent="1" source="QOg4Mzp8YeB_TeJsz8n6-12" target="QOg4Mzp8YeB_TeJsz8n6-9">
          <mxGeometry width="100" height="100" relative="1" as="geometry">
            <mxPoint x="660" y="250" as="sourcePoint" />
            <mxPoint x="760" y="150" as="targetPoint" />
          </mxGeometry>
        </mxCell>
        <mxCell id="QOg4Mzp8YeB_TeJsz8n6-14" value="gRPC" style="text;html=1;align=center;verticalAlign=middle;resizable=0;points=[];autosize=1;strokeColor=none;fillColor=none;rotation=-90;" vertex="1" parent="1">
          <mxGeometry x="680" y="200" width="60" height="30" as="geometry" />
        </mxCell>
        <mxCell id="QOg4Mzp8YeB_TeJsz8n6-15" value="GORM&lt;div&gt;ORM&lt;/div&gt;" style="text;html=1;align=center;verticalAlign=middle;resizable=0;points=[];autosize=1;strokeColor=none;fillColor=none;rotation=15;" vertex="1" parent="1">
          <mxGeometry x="260" y="110" width="60" height="40" as="geometry" />
        </mxCell>
      </root>
    </mxGraphModel>
  </diagram>
</mxfile>
